<svg width="250" height="150" viewBox="0 0 250 150" xmlns="http://www.w3.org/2000/svg">
  <!-- Gradient for the sky-like feel -->
  <defs>
    <radialGradient id="grad1" cx="50%" cy="50%" r="50%" fx="50%" fy="50%">
      <stop offset="0%" style="stop-color:rgb(167,212,137);stop-opacity:1" />
      <stop offset="100%" style="stop-color:rgb(125,185,95);stop-opacity:1" />
    </radialGradient>
    <filter id="shadow" x="-20%" y="-20%" width="140%" height="140%">
      <feGaussianBlur in="SourceAlpha" stdDeviation="3"/>
      <feOffset dx="2" dy="4"/>
      <feMerge>
        <feMergeNode/>
        <feMergeNode in="SourceGraphic"/>
      </feMerge>
    </filter>
  </defs>

  <!-- Base of the island (earth/rock) -->
  <path d="M 30,70
           C 40,110 80,145 125,140
           C 170,135 210,110 220,70
           Z" fill="#B38A5F" filter="url(#shadow)"/>

  <!-- Top of the island (grass) -->
  <path d="M 25,75
           Q 40,50 80,60
           T 150,65
           T 225,70
           L 220,70
           C 210,110 170,135 125,140
           C 80,145 40,110 30,70
           L 25,75
           Z" fill="url(#grad1)" />

  <!-- Simple stylized tree 1 -->
  <rect x="95" y="40" width="10" height="25" fill="#8B4513" />
  <circle cx="100" cy="40" r="15" fill="#6B8E23" />

  <!-- Simple stylized tree 2 -->
  <rect x="145" y="45" width="8" height="20" fill="#8B4513" />
  <circle cx="149" cy="45" r="12" fill="#7CB342" />
</svg>